# File created by Blade
# Date/Time:  Tue Jan 27 18:05:41 2015
# Frame Rate: 120.000 fps
#------------------------------------------------------
:FULLY-SPECIFIED
:DEGREES
4529
root -1.366027 31.905466 -6.515952 3.722053 2.969858 2.864260
Spine -3.972258 -11.239592 -0.401529
Head 40.621043 9.217000 2.226701
LeftShoulder -23.476147 21.052518 17.171911
LeftArm 17.679486 -28.076128 -34.935450
LeftForeArm 7.108361 -0.000000 30.784152
LeftHand -15.291417 -0.000000 2.959763
LeftHandThumb1 -26.253704 0.000000 33.147579
RightShoulder -16.497936 3.044421 -39.595376
RightArm 6.483814 46.281261 34.420361
RightForeArm -8.719630 -0.000000 41.050535
RightHand -18.184040 -0.000000 -0.383048
RightHandThumb1 -24.326973 -0.000000 -32.862282
LeftUpLeg 0.909114 3.137401 -1.024202
LeftLeg 1.328310 -0.000000 -0.000000
LeftFoot -18.249587 16.305646 -24.917669
LeftToeBase 8.581794 -0.000000 -0.000000
RightUpLeg 2.313647 -0.745558 -3.865155
RightLeg -2.612457 -0.000000 0.000000
RightFoot -14.628767 -12.921366 10.076504
RightToeBase 4.896687 -0.000000 -0.000000
4530
root -1.364520 31.904121 -6.508828 3.736311 3.151851 2.892740
Spine -4.021691 -11.204664 -0.435030
Head 40.716323 9.047858 2.180695
LeftShoulder -23.356369 20.787920 17.508007
LeftArm 17.559107 -28.526650 -34.269671
LeftForeArm 7.125352 -0.000000 30.241460
LeftHand -15.321623 -0.000000 2.968698
LeftHandThumb1 -26.253704 0.000000 33.147579
RightShoulder -16.518813 3.056487 -39.707148
RightArm 6.823277 45.457016 34.303658
RightForeArm -9.623551 -0.000000 39.809810
RightHand -18.404028 -0.000000 -0.419236
RightHandThumb1 -24.326973 -0.000000 -32.862282
LeftUpLeg 0.892841 3.021441 -1.041916
LeftLeg 1.326012 -0.000000 -0.000000
LeftFoot -18.207425 16.272843 -24.856820
LeftToeBase 8.548865 -0.000000 -0.000000
RightUpLeg 2.364455 -0.767005 -3.880760
RightLeg -2.646927 -0.000000 0.000000
RightFoot -14.678690 -13.069438 10.121973
RightToeBase 4.901012 -0.000000 -0.000000
4531
root -1.364788 31.902674 -6.500819 3.736856 3.317417 2.898234
Spine -4.052379 -11.163997 -0.448143
Head 40.778156 8.888052 2.099323
LeftShoulder -23.277602 20.598790 17.798853
LeftArm 17.570379 -28.915731 -33.615925
LeftForeArm 6.996934 -0.000000 29.462737
LeftHand -15.474554 -0.000000 3.652614
LeftHandThumb1 -26.253704 0.000000 33.147579
RightShoulder -16.536226 3.016932 -39.810216
RightArm 7.196239 44.627963 34.216321
RightForeArm -10.450922 -0.000000 38.551701
RightHand -18.524385 0.000000 -0.464300
RightHandThumb1 -24.326973 -0.000000 -32.862282
LeftUpLeg 0.897800 2.874397 -1.030731
LeftLeg 1.316229 -0.000000 -0.000000
LeftFoot -18.210436 16.228898 -24.897025
LeftToeBase 8.587645 -0.000000 -0.000000
RightUpLeg 2.426114 -0.757742 -3.871995
RightLeg -2.680025 -0.000000 0.000000
RightFoot -14.713720 -13.221119 10.132580
RightToeBase 4.904726 -0.000000 -0.000000
4532
root -1.363587 31.900939 -6.493940 3.741296 3.473793 2.915731
Spine -4.078581 -11.124672 -0.475854
Head 40.818922 8.745267 2.038714
LeftShoulder -23.210916 20.343481 18.136990
LeftArm 17.526597 -29.216479 -32.978361
LeftForeArm 6.974527 0.000000 28.743018
LeftHand -15.160710 -0.000000 3.685045
LeftHandThumb1 -26.253704 0.000000 33.147579
RightShoulder -16.579466 3.136989 -39.959740
RightArm 7.465003 43.582255 34.049815
RightForeArm -11.172237 0.000000 37.279483
RightHand -18.468183 -0.000000 -0.659715
RightHandThumb1 -24.326973 -0.000000 -32.862282
LeftUpLeg 0.898340 2.700650 -1.038928
LeftLeg 1.306426 -0.000000 -0.000000
LeftFoot -18.219123 16.236646 -24.915132
LeftToeBase 8.572821 -0.000000 -0.000000
RightUpLeg 2.465197 -0.782420 -3.877605
RightLeg -2.679325 -0.000000 0.000000
RightFoot -14.784953 -13.346620 10.171308
RightToeBase 4.918487 -0.000000 -0.000000
4533
root -1.362971 31.899726 -6.487429 3.731237 3.590618 2.920695
Spine -4.084230 -11.047313 -0.499562
Head 40.844337 8.600229 1.990442
LeftShoulder -23.085189 20.109062 18.492738
LeftArm 17.396221 -29.429203 -32.316332
LeftForeArm 6.819415 -0.000000 28.075675
LeftHand -15.246353 -0.000000 3.513333
LeftHandThumb1 -26.253704 0.000000 33.147579
RightShoulder -16.637729 3.085995 -40.022315
RightArm 7.952064 42.683888 33.977699
RightForeArm -11.959252 -0.000000 35.905983
RightHand -18.645305 -0.000000 -0.175852
RightHandThumb1 -24.326973 -0.000000 -32.862282
LeftUpLeg 0.917099 2.573533 -1.035511
LeftLeg 1.290640 -0.000000 -0.000000
LeftFoot -18.221411 16.249233 -24.908189
LeftToeBase 8.579086 -0.000000 -0.000000
RightUpLeg 2.506160 -0.782759 -3.871745
RightLeg -2.671894 -0.000000 0.000000
RightFoot -14.833185 -13.451804 10.202087
RightToeBase 4.959235 -0.000000 -0.000000
